<?xml version="1.0" encoding="UTF-8" standalone="no"?>
<!DOCTYPE svg PUBLIC "-//W3C//DTD SVG 1.1//EN" "http://www.w3.org/Graphics/SVG/1.1/DTD/svg11.dtd">
<svg width="100%" height="100%" viewBox="0 0 628 900" version="1.1" xmlns="http://www.w3.org/2000/svg" xmlns:xlink="http://www.w3.org/1999/xlink" xml:space="preserve" xmlns:serif="http://www.serif.com/" style="fill-rule:evenodd;clip-rule:evenodd;stroke-linejoin:round;stroke-miterlimit:2;">
    <g transform="matrix(1,0,0,1,-1372,0)">
        <g transform="matrix(0.468331,0,0,0.468331,1372.83,0.000106334)">
            <g id="_96-5" serif:id="96,5">
                <g transform="matrix(1,0,0,1,0,1920)">
                    <path d="M0,-1920L0,-300.319L669.606,0L1339.16,-300.319L1339.16,-1920L0,-1920Z" style="fill:rgb(30,67,134);fill-rule:nonzero;"/>
                </g>
                <g transform="matrix(1,0,0,1,1285.38,1850.42)">
                    <path d="M0,-1796.74L0,-272.15L-615.772,0L-1231.6,-272.15L-1231.6,-1796.74L0,-1796.74Z" style="fill:rgb(241,239,239);fill-rule:nonzero;"/>
                </g>
                <g transform="matrix(-1,0,0,1,1339.16,-922.921)">
                    <rect x="107.566" y="1029.89" width="1124.03" height="783.135" style="fill:rgb(30,67,134);"/>
                </g>
                <g transform="matrix(1,0,0,1,1230.12,1787.13)">
                    <path d="M0,-477.611L0,-239.861L-560.511,0L-1121.07,-239.861L-1121.07,-477.611L0,-477.611Z" style="fill:rgb(30,67,134);fill-rule:nonzero;"/>
                </g>
                <g transform="matrix(1,0,0,1,424,382.278)">
                    <path d="M0,-64.598C1.774,-64.598 3.513,-65.153 5.229,-66.258C6.933,-67.365 8.182,-68.899 8.973,-70.873L24.154,-108.891L-56.811,-108.891L-74.5,-64.598L0,-64.598ZM-36.877,43.927L-21.691,5.905C-21.004,4.187 -21.053,2.71 -21.826,1.476C-22.604,0.249 -23.875,-0.37 -25.653,-0.37L-100.149,-0.37L-117.842,43.927L-36.877,43.927ZM56.815,-135.47C58.334,-135.47 59.467,-134.973 60.217,-133.994C60.961,-133.007 61.041,-131.778 60.452,-130.302L36.718,-70.873C32.979,-61.517 26.477,-53.643 17.208,-47.248C7.935,-40.847 -1.389,-37.651 -10.764,-37.651L-113.013,-37.651L-73.945,-135.47L56.815,-135.47ZM-14.89,-27.315C-5.515,-27.315 1.229,-24.051 5.343,-17.534C9.449,-11.01 9.69,-3.195 6.054,5.905L-17.68,65.334C-18.269,66.812 -19.355,68.103 -20.94,69.212C-22.521,70.318 -24.072,70.872 -25.591,70.872L-156.351,70.872L-117.139,-27.315L-14.89,-27.315ZM-211.355,43.927L-183.605,43.927L-122.573,-108.891L-150.323,-108.891L-139.708,-135.47L-84.208,-135.47L-166.615,70.872L-222.114,70.872L-211.355,43.927ZM47.994,-32.483C49.28,-26.819 49.721,-20.792 49.325,-14.396C48.916,-7.995 47.299,-1.229 44.45,5.905L20.716,65.334C18.357,71.241 15.001,76.779 10.659,81.945C6.312,87.113 1.319,91.67 -4.3,95.603C-9.93,99.543 -15.841,102.617 -22.051,104.831C-28.257,107.046 -34.398,108.153 -40.48,108.153L-237.003,108.153L-226.244,81.208L-29.721,81.208C-25.161,81.208 -20.684,79.674 -16.283,76.593C-11.888,73.519 -8.804,69.763 -7.034,65.334L16.7,5.905C20.039,-2.456 20.836,-10.023 19.113,-16.795C17.378,-23.561 13.7,-28.793 8.083,-32.483C16.648,-36.175 24.505,-41.399 31.643,-48.171C38.772,-54.935 44.021,-62.504 47.365,-70.873L71.099,-130.302C72.766,-134.483 72.631,-138.111 70.694,-141.19C68.748,-144.266 65.501,-145.806 60.941,-145.806L-135.582,-145.806L-124.818,-172.751L71.705,-172.751C77.787,-172.751 83.042,-171.644 87.482,-169.429C91.922,-167.213 95.374,-164.133 97.863,-160.2C100.34,-156.262 101.715,-151.769 101.982,-146.727C102.248,-141.681 101.207,-136.207 98.848,-130.302L75.114,-70.873C72.26,-63.731 68.475,-56.967 63.77,-50.57C59.056,-44.167 53.802,-38.142 47.994,-32.483" style="fill:rgb(241,239,239);fill-rule:nonzero;"/>
                </g>
                <g transform="matrix(1,0,0,1,684.39,368.989)">
                    <path d="M0,-38.02L22.997,-95.602L-51.886,-95.602L-74.882,-38.02L0,-38.02ZM-69.02,-122.181L56.419,-122.181C59.712,-122.181 60.723,-120.577 59.447,-117.382L18.905,-15.872C17.628,-12.673 15.34,-11.075 12.048,-11.075L-113.391,-11.075L-69.02,-122.181ZM-117.231,-159.462L71.309,-159.462C77.136,-159.462 82.268,-158.355 86.708,-156.14C91.147,-153.924 94.562,-150.908 96.969,-147.096C99.371,-143.278 100.71,-138.848 100.977,-133.808C101.242,-128.761 100.194,-123.288 97.839,-117.382L57.297,-15.872C55.036,-10.208 51.734,-4.8 47.391,0.37C43.045,5.536 38.142,10.029 32.693,13.844C27.239,17.66 21.419,20.672 15.209,22.886C9.002,25.101 2.986,26.208 -2.842,26.208L-100.531,26.208L-112.917,57.216L-87.83,57.216L-98.589,84.161L-151.426,84.161L-117.521,-0.739L7.918,-0.739C12.227,-0.739 16.49,-2.215 20.713,-5.168C24.932,-8.121 27.875,-11.684 29.547,-15.872L70.089,-117.382C71.757,-121.564 71.663,-125.135 69.804,-128.088C67.94,-131.039 64.854,-132.517 60.545,-132.517L-127.994,-132.517L-117.231,-159.462ZM-178.68,57.216L-117.648,-95.602L-142.735,-95.602L-132.12,-122.181L-79.283,-122.181L-161.69,84.161L-214.526,84.161L-203.767,57.216L-178.68,57.216ZM-113.479,121.442L-229.416,121.442L-218.656,94.497L-102.719,94.497L-113.479,121.442Z" style="fill:rgb(241,239,239);fill-rule:nonzero;"/>
                </g>
                <g transform="matrix(1,0,0,1,1126.66,426.571)">
                    <path d="M0,-153.184L-28.128,-153.184L-89.16,-0.366L-61.032,-0.366L-71.791,26.579L-127.669,26.579L-45.262,-179.763L10.615,-179.763L0,-153.184ZM-86.68,63.86L-208.7,63.86L-197.94,36.915L-75.921,36.915L-86.68,63.86ZM-154.923,-0.366L-116.888,-95.602L-228.379,10.337L-254.87,-95.602L-292.905,-0.366L-264.777,-0.366L-275.536,26.579L-331.414,26.579L-249.008,-179.763L-243.304,-179.763L-208.331,-39.863L-61.23,-179.763L-55.526,-179.763L-137.932,26.579L-193.81,26.579L-183.051,-0.366L-154.923,-0.366ZM-300.26,-217.044L-207.509,-217.044L-180.615,-109.259L-67.246,-217.044L25.505,-217.044L14.741,-190.099L-62.804,-190.099L-200.664,-59.057L-233.478,-190.099L-311.023,-190.099L-300.26,-217.044ZM-386.796,-0.366L-358.668,-0.366L-297.636,-153.184L-325.765,-153.184L-315.149,-179.763L-259.271,-179.763L-341.678,26.579L-397.556,26.579L-386.796,-0.366ZM-290.426,63.86L-412.445,63.86L-401.686,36.915L-279.666,36.915L-290.426,63.86Z" style="fill:rgb(241,239,239);fill-rule:nonzero;"/>
                </g>
                <g transform="matrix(1,0,0,1,322.503,604.619)">
                    <path d="M0,142.77L-35.46,161.608L-112.573,161.608L-134.375,142.77L-123.611,113.711L-78.97,113.711L-84.377,128.299L-39.278,128.299L-24.381,88.098L-85.336,88.098L-107.096,69.144L-81.521,0.112L-45.717,-18.838L31.395,-18.838L52.897,0L42.511,28.025L-2.124,28.025L2.899,14.471L-42.2,14.471L-57.097,54.672L4.159,54.672L25.618,73.624L0,142.77Z" style="fill:rgb(241,239,239);fill-rule:nonzero;"/>
                </g>
                <g transform="matrix(1,0,0,1,462.135,680.311)">
                    <path d="M0,-8.614L19.494,-61.222L-25.911,-61.222L-45.405,-8.614L0,-8.614ZM39.402,5.512L3.359,24.697L-57.744,24.697L-80.427,85.916L-125.067,85.916L-58.212,-94.53L47.532,-94.53L69.406,-75.466L39.402,5.512Z" style="fill:rgb(241,239,239);fill-rule:nonzero;"/>
                </g>
                <g transform="matrix(1,0,0,1,601.231,619.09)">
                    <path d="M0,113.828L42.171,0L-8.775,0L-50.946,113.828L0,113.828ZM39.425,128.299L3.665,147.137L-79.453,147.137L-100.95,128.299L-48.096,-14.359L-12.598,-33.309L70.52,-33.309L92.279,-14.359L39.425,128.299Z" style="fill:rgb(241,239,239);fill-rule:nonzero;"/>
                </g>
                <g transform="matrix(1,0,0,1,739.639,692.717)">
                    <path d="M0,-33.427L46.332,-33.427L61.272,-73.744L14.94,-73.744L0,-33.427ZM59.503,73.51L11.638,73.51L0.856,-0L-12.383,-0L-39.619,73.51L-84.412,73.51L-17.557,-106.937L89.725,-106.937L111.184,-87.986L86.629,-21.711L48.282,-0.46L59.503,73.51Z" style="fill:rgb(241,239,239);fill-rule:nonzero;"/>
                </g>
                <g transform="matrix(1,0,0,1,996.055,732.918)">
                    <path d="M0,-113.828L-44.33,-113.828L-98.846,33.309L-143.639,33.309L-89.123,-113.828L-133.453,-113.828L-121.114,-147.137L12.34,-147.137L0,-113.828Z" style="fill:rgb(241,239,239);fill-rule:nonzero;"/>
                </g>
                <g transform="matrix(1,0,0,1,1098.14,604.619)">
                    <path d="M0,142.77L-35.46,161.608L-112.573,161.608L-134.375,142.77L-123.611,113.711L-78.97,113.711L-84.371,128.299L-39.272,128.299L-24.381,88.098L-85.336,88.098L-107.101,69.144L-81.521,0.112L-45.717,-18.838L31.395,-18.838L52.897,0L42.511,28.025L-2.124,28.025L2.899,14.471L-42.2,14.471L-57.097,54.672L4.159,54.672L25.618,73.624L0,142.77Z" style="fill:rgb(241,239,239);fill-rule:nonzero;"/>
                </g>
                <g transform="matrix(1,0,0,1,399.511,1127.1)">
                    <path d="M0,-49.7L22.273,-109.48L-56.206,-109.48L-78.479,-49.7L0,-49.7ZM27.314,81.302L-31.943,109.314L-163.185,109.314L-201.57,81.302L-185.471,38.092L-111.188,38.092L-119.269,59.783L-40.79,59.783L-18.517,0.001L-124.821,0.001L-162.945,-28.009L-124.634,-130.83L-65.575,-159.014L67.504,-159.014L106.286,-130.66L27.314,81.302Z" style="fill:rgb(213,32,39);fill-rule:nonzero;"/>
                </g>
                <g transform="matrix(1,0,0,1,618.718,1017.62)">
                    <path d="M0,169.266L22.273,109.484L-54.107,109.484L-76.38,169.266L0,169.266ZM69.419,190.785L10.158,218.797L-122.135,218.797L-160.519,190.785L-81.481,-21.347L-22.683,-49.531L109.347,-49.531L147.668,-21.347L132.204,20.156L55.819,20.156L63.326,0.003L-13.317,0.003L-35.59,59.783L69.401,59.783L107.857,87.623L69.419,190.785Z" style="fill:rgb(213,32,39);fill-rule:nonzero;"/>
                </g>
                <g transform="matrix(0.34913,-0.937074,-0.937074,-0.34913,763.055,1264.61)">
                    <path d="M7.571,60.431L60.428,60.431L87.005,-10.9L34.148,-10.9L7.571,60.431Z" style="fill:rgb(213,32,39);fill-rule:nonzero;"/>
                </g>
                <g transform="matrix(1,0,0,1,1054.96,996.098)">
                    <path d="M0,211.963L-59.527,239.975L-189.715,239.975L-227.839,211.963L-211.869,169.094L-135.747,169.094L-143.828,190.785L-68.496,190.785L-39.351,112.559L-142.243,112.559L-180.369,84.547L-138.431,-28.012L86.257,-28.012L67.8,21.522L-80.502,21.522L-95.964,63.025L6.665,63.025L45.118,90.868L0,211.963Z" style="fill:rgb(213,32,39);fill-rule:nonzero;"/>
                </g>
                <g transform="matrix(1,0,0,1,404.428,1425.13)">
                    <path d="M0,108.831L-21.684,123.187L-67.385,123.187L-78.358,108.831L-38.779,0.091L-17.06,-14.356L28.379,-14.356L39.578,0.091L31.738,21.628L6.349,21.628L10.206,11.036L-17.285,11.036L-48.866,97.801L-21.373,97.801L-10.221,67.156L-27.557,67.156L-18.284,41.681L24.441,41.681L0,108.831Z" style="fill:rgb(241,239,239);fill-rule:nonzero;"/>
                </g>
                <g transform="matrix(1,0,0,1,481.933,1466.81)">
                    <path d="M0,25.481L6.746,-15.668L-16.458,25.481L0,25.481ZM-9.186,81.512L-4.161,50.87L-30.776,50.87L-48.059,81.512L-73.974,81.512L3.579,-56.031L39.3,-56.031L16.729,81.512L-9.186,81.512Z" style="fill:rgb(241,239,239);fill-rule:nonzero;"/>
                </g>
                <g transform="matrix(1,0,0,1,603.567,1522.93)">
                    <path d="M0,-86.76L-25.215,-86.76L-66.035,25.392L-91.512,25.392L-50.692,-86.76L-75.907,-86.76L-66.665,-112.152L9.242,-112.152L0,-86.76Z" style="fill:rgb(241,239,239);fill-rule:nonzero;"/>
                </g>
                <g transform="matrix(-1,0,0,1,625.066,1410.78)">
                    <path d="M24.584,137.543L50.062,137.543L-0.001,0L-25.478,0L24.584,137.543Z" style="fill:rgb(241,239,239);fill-rule:nonzero;"/>
                </g>
                <g transform="matrix(1,0,0,1,665.796,1410.78)">
                    <path d="M0,137.543L-1.528,65.491L-27.754,137.543L-53.057,137.543L-2.995,0L24.233,0L25.819,72.143L52.076,0L77.29,0L27.291,137.368L27.314,137.543L0,137.543Z" style="fill:rgb(241,239,239);fill-rule:nonzero;"/>
                </g>
                <g transform="matrix(1,0,0,1,771.644,1410.78)">
                    <path d="M0,137.543L-66.275,137.543L-16.213,0L49.539,0L40.297,25.391L-0.066,25.391L-11.22,56.036L23.538,56.036L14.265,81.512L-20.492,81.512L-31.644,112.156L9.24,112.156L0,137.543Z" style="fill:rgb(241,239,239);fill-rule:nonzero;"/>
                </g>
                <g transform="matrix(1,0,0,1,857.876,1466.81)">
                    <path d="M0,25.481L6.748,-15.668L-16.458,25.481L0,25.481ZM-9.186,81.512L-4.161,50.87L-30.776,50.87L-48.059,81.512L-73.974,81.512L3.579,-56.031L39.3,-56.031L16.729,81.512L-9.186,81.512Z" style="fill:rgb(241,239,239);fill-rule:nonzero;"/>
                </g>
                <g transform="matrix(1,0,0,1,968.287,1425.22)">
                    <path d="M0,108.653L-21.891,123.098L-68.208,123.098L-79.266,108.742L-34.429,-14.445L-9.04,-14.445L-49.86,97.711L-21.405,97.711L19.415,-14.445L44.804,-14.445L0,108.653Z" style="fill:rgb(241,239,239);fill-rule:nonzero;"/>
                </g>
            </g>
        </g>
    </g>
</svg>
