<svg xmlns="http://www.w3.org/2000/svg" width="200" height="120" fill="none" viewBox="0 0 200 120">
  <g clip-path="url(#clip0)">
    <path fill="#21409A" d="M55.852 11.456c-9.218 0-10.854 15.614-10.854 28.666S46.634 68.76 55.852 68.76c9.219 0 10.86-15.615 10.86-28.655 0-13.04-1.636-28.667-10.86-28.667v.018zm0 65.267c-15.47 0-28.585-14.544-28.585-36.618S40.383 3.48 55.852 3.48c15.47 0 28.586 14.533 28.586 36.624s-13.11 36.618-28.586 36.618zM7.032 3.082L0 10.617l7.032.694v65.851h16.615V3.082H7.032zM151.006 72.999a5.924 5.924 0 01-3.666 5.479 5.925 5.925 0 01-6.463-1.298 5.931 5.931 0 01-1.266-6.47 5.924 5.924 0 015.497-3.639 5.927 5.927 0 015.927 5.928M131.309 42.927V1h-7.518L85.554 51.89v4.147h30.106v21.12h15.615v-21.12h4.048l3.851-13.11h-7.865zm-17.175.08H99.561l14.573-19.355v19.356zM175.289 77.157h-17.424l29.187-58.94h-33.733l3.887-13.527H200l-24.711 72.467z"/>
    <g>
      <path fill="#21409A" d="M54.314 98.467h.231c3.065 0 5.09 1.215 5.09 4.279v12.145c0 3.065-2.025 4.279-5.09 4.279h-.23c-3.066 0-5.09-1.214-5.09-4.279v-12.145c0-3.093 2.024-4.279 5.09-4.279zm.116 17.754c1.099 0 1.85-.405 1.85-1.851v-11.103c0-1.446-.751-1.851-1.85-1.851-1.099 0-1.85.405-1.85 1.851v11.103c0 1.446.751 1.851 1.85 1.851zM72.53 114.891c0 3.123-1.966 4.279-5.03 4.279h-.116c-3.065 0-5.032-1.127-5.032-4.279V98.698h3.355v15.672c0 1.446.636 1.851 1.735 1.851 1.098 0 1.735-.405 1.735-1.851V98.698h3.354v16.193zM84.328 101.648h-3.383v17.291h-3.354v-17.291h-3.383v-2.95h10.12v2.95zM91.239 114.446h-3.701l-.723 4.51h-3.239l3.76-20.24h4.22l3.818 20.24h-3.412l-.723-4.51zm-.434-2.776l-1.417-8.993-1.417 8.993h2.834zM101.851 98.467h.231c3.065 0 5.089 1.215 5.089 4.279v12.145c0 3.065-2.024 4.279-5.089 4.279h-.231c-3.065 0-5.09-1.214-5.09-4.279v-12.145c0-3.093 2.025-4.279 5.09-4.279zm.115 17.754c1.099 0 1.851-.405 1.851-1.851v-11.103c0-1.446-.752-1.851-1.851-1.851s-1.85.405-1.85 1.851v11.103c0 1.446.751 1.851 1.85 1.851zM120.067 114.891c0 3.123-1.966 4.279-5.031 4.279h-.116c-3.065 0-5.031-1.127-5.031-4.279V98.698h3.354v15.672c0 1.446.636 1.851 1.735 1.851 1.099 0 1.735-.405 1.735-1.851V98.698h3.354v16.193zM129.175 114.446h-3.701l-.723 4.51h-3.238l3.759-20.24h4.221l3.817 20.24h-3.412l-.723-4.51zm-.433-2.776l-1.417-8.993-1.417 8.993h2.834zM135.103 118.939v-20.24h3.354v20.24h-3.354zM147.768 105.927v-2.834c0-1.272-.723-1.734-1.735-1.734s-1.706.462-1.706 1.734v1.388c0 1.041.347 1.504 1.301 2.053l2.371 1.33c1.937 1.099 3.094 1.996 3.094 4.164v2.921c0 3.122-1.937 4.221-5.002 4.221h-.058c-3.065 0-5.002-1.07-5.002-4.221v-3.528h3.296v3.065a1.738 1.738 0 001.735 1.735 1.738 1.738 0 001.735-1.735v-1.59c0-1.041-.318-1.562-1.33-2.111l-2.314-1.33c-1.966-1.128-3.094-2.053-3.094-4.164v-2.66c0-3.007 2.198-4.164 4.974-4.164h.058c2.776 0 4.973 1.157 4.973 4.164v3.296h-3.296z"/>
    </g>
  </g>
  <defs>
    <clipPath id="clip0">
      <path fill="#fff" d="M0 0h200v119H0z" transform="translate(0 .5)"/>
    </clipPath>
  </defs>
</svg>
